<svg xmlns="http://www.w3.org/2000/svg" viewBox="0 0 169 36">
  <path d="M163.67 20.932h4.937v4.937h-4.936V20.93zM60.59.017h4.887v4.868H60.59V.017zM14.174 23.633h-.072c-1.196 1.927-3.262 2.753-5.692 2.753-5.655 0-8.41-4.576-8.41-9.53 0-4.782 2.79-9.22 8.302-9.22 2.21 0 4.386.894 5.547 2.648h.07V.05h5.15v25.853h-4.896v-2.27zM9.68 11.317c-3.372 0-4.532 2.787-4.532 5.676 0 2.787 1.34 5.71 4.53 5.71 3.373 0 4.424-2.82 4.424-5.745 0-2.89-1.087-5.64-4.423-5.64zM27 18.197c.148 3.13 1.74 4.507 4.706 4.507 2.112 0 3.816-1.204 4.15-2.305h4.63c-1.48 4.23-4.63 5.986-8.966 5.986-6.04 0-9.782-3.854-9.782-9.36 0-5.33 3.965-9.39 9.782-9.39 6.522 0 9.708 5.09 9.3 10.56H27zm8.56-3.096c-.483-2.476-1.63-3.783-4.188-3.783-3.41 0-4.26 2.408-4.372 3.784h8.56zm25.03-6.983h4.887V25.9H60.59V8.12zm29.887-.001h4.644v2.478h.105c1.238-2.03 3.372-2.96 5.432-2.96 5.195 0 6.502 2.925 6.502 7.33v10.938h-4.886V15.858c0-2.924-.826-4.37-3.127-4.37-2.65 0-3.785 1.48-3.785 5.092v9.323h-4.885V8.117m28.7-.481c5.838 0 9.6 3.715 9.6 9.39 0 5.644-3.762 9.36-9.6 9.36-5.802 0-9.564-3.716-9.564-9.36 0-5.675 3.762-9.39 9.564-9.39zm0 15.068c3.474 0 4.513-2.82 4.513-5.677 0-2.855-1.04-5.71-4.513-5.71-3.44 0-4.477 2.855-4.477 5.71 0 2.856 1.038 5.677 4.477 5.677zm12.287-14.587h4.644v3.303h.07c.927-2.236 3.232-3.784 5.675-3.784.38 0 .722.07 1.067.172v4.54c-.448-.102-1.17-.17-1.755-.17-3.612 0-4.817 2.545-4.817 5.71v8.015h-4.884V8.117m-81.996 18.28c-2.976 0-5.872-1.12-7.558-2.92l-.003-.003.003-.002 3.033-2.736.002.002c1.1 1.388 2.864 2.216 4.715 2.216 1.426 0 2.95-.552 2.95-2.103 0-.71-.326-1.2-1.057-1.59-.675-.358-1.67-.62-3.16-.956-1.168-.27-2.65-.683-3.745-1.5-1.147-.857-1.704-2.01-1.704-3.528 0-.947.213-1.806.633-2.553.386-.687.947-1.28 1.666-1.76 1.298-.866 3.085-1.344 5.03-1.344 1.36 0 2.704.23 3.886.67 1.268.47 2.313 1.17 3.02 2.028l.003.002-.003.002-2.994 2.552-.002-.002c-.69-.886-2.157-1.92-4.025-1.92-1.427 0-2.95.503-2.95 1.918 0 1.345 1.366 1.722 3.985 2.324 1.124.26 2.76.704 3.996 1.576.612.43 1.085.938 1.407 1.507.363.64.547 1.383.547 2.205 0 1.04-.213 1.964-.633 2.75a5.052 5.052 0 01-1.693 1.83c-1.318.873-3.168 1.335-5.35 1.335m99.009 6.77a11.07 11.07 0 01-2.347-.243l-.19-.04.418-4.002.247.07c.518.15 1.09.23 1.61.23 1.728 0 2.207-.704 2.957-2.434l.852-1.995-7.745-16.626h5.414l.056.133 4.8 11.52 4.314-11.653h5.112l-8.55 20.227c-1.26 2.972-2.863 4.813-6.95 4.813M86.607 8.14v16.342c0 6.47-2.95 10.582-9.522 10.582-2.74 0-6.184-1.046-8.363-2.954l2.425-3.477c1.616 1.645 3.794 2.543 5.902 2.543 4.075 0 5.34-2.618 5.34-6.17v-1.31h-.07c-1.23 1.758-3.197 2.693-5.516 2.693-5.06 0-8.328-4.265-8.328-9.35 0-5.198 3.163-9.423 8.257-9.423 2.355 0 4.568 1.046 5.798 3.215h.072V8.14h4.005zm-4.77 9.136c0-3.074-.997-5.82-4.162-5.82-2.752 0-3.957 2.562-3.957 5.382 0 2.71.93 5.675 3.957 5.675 2.786 0 4.163-2.526 4.163-5.237z"/>
</svg>